<?xml version="1.0" encoding="utf-8" standalone="no"?>
<!DOCTYPE svg PUBLIC "-//W3C//DTD SVG 1.1//EN"
  "http://www.w3.org/Graphics/SVG/1.1/DTD/svg11.dtd">
<svg height="878.4pt" version="1.1" viewBox="0 0 878.4 878.4" width="878.4pt" xmlns="http://www.w3.org/2000/svg" xmlns:xlink="http://www.w3.org/1999/xlink">
 <metadata>
  <rdf:RDF xmlns:cc="http://creativecommons.org/ns#" xmlns:dc="http://purl.org/dc/elements/1.1/" xmlns:rdf="http://www.w3.org/1999/02/22-rdf-syntax-ns#">
   <cc:Work>
    <dc:type rdf:resource="http://purl.org/dc/dcmitype/StillImage"/>
    <dc:date>2021-08-23T09:54:59.124015</dc:date>
    <dc:format>image/svg+xml</dc:format>
    <dc:creator>
     <cc:Agent>
      <dc:title>Matplotlib v3.4.2, https://matplotlib.org/</dc:title>
     </cc:Agent>
    </dc:creator>
   </cc:Work>
  </rdf:RDF>
 </metadata>
 <defs>
  <style type="text/css">*{stroke-linecap:butt;stroke-linejoin:round;}</style>
 </defs>
 <g id="figure_1">
  <g id="patch_1">
   <path d="M 0 878.4 
L 878.4 878.4 
L 878.4 0 
L 0 0 
z
" style="fill:#ffffff;"/>
  </g>
  <g id="axes_1">
   <g id="patch_2">
    <path clip-path="url(#p2326ffbbff)" d="M 766.150817 322.453275 
Q 553.812381 214.261451 342.060234 106.368356 
" style="fill:none;stroke:#000000;stroke-linecap:round;stroke-width:0.58854;"/>
    <path clip-path="url(#p2326ffbbff)" d="M 344.71628 109.966331 
L 342.060234 106.368356 
L 346.532241 106.402305 
L 344.71628 109.966331 
z
" style="stroke:#000000;stroke-linecap:round;stroke-width:0.58854;"/>
   </g>
   <g id="patch_3">
    <path clip-path="url(#p2326ffbbff)" d="M 770.437636 340.315308 
Q 608.974706 562.549965 447.898543 784.252282 
" style="fill:none;stroke:#000000;stroke-linecap:round;stroke-width:0.58854;"/>
    <path clip-path="url(#p2326ffbbff)" d="M 451.867718 782.191784 
L 447.898543 784.252282 
L 448.63165 779.840643 
L 451.867718 782.191784 
z
" style="stroke:#000000;stroke-linecap:round;stroke-width:0.58854;"/>
   </g>
   <g id="patch_4">
    <path clip-path="url(#p2326ffbbff)" d="M 243.313243 152.573051 
Q 478.692201 189.853418 712.911537 226.950119 
" style="fill:none;stroke:#000000;stroke-linecap:round;stroke-width:1.050126;"/>
    <path clip-path="url(#p2326ffbbff)" d="M 709.273653 224.349005 
L 712.911537 226.950119 
L 708.647915 228.299758 
L 709.273653 224.349005 
z
" style="stroke:#000000;stroke-linecap:round;stroke-width:1.050126;"/>
   </g>
   <g id="patch_5">
    <path clip-path="url(#p2326ffbbff)" d="M 235.766954 162.962517 
Q 389.436183 464.555315 542.572393 765.102004 
" style="fill:none;stroke:#000000;stroke-linecap:round;stroke-width:1.050126;"/>
    <path clip-path="url(#p2326ffbbff)" d="M 542.538444 760.629996 
L 542.572393 765.102004 
L 538.974418 762.445959 
L 542.538444 760.629996 
z
" style="stroke:#000000;stroke-linecap:round;stroke-width:1.050126;"/>
   </g>
   <g id="patch_6">
    <path clip-path="url(#p2326ffbbff)" d="M 164.328021 227.133915 
Q 399.706978 189.853548 633.729297 152.788051 
" style="fill:none;stroke:#000000;stroke-linecap:round;stroke-width:1.22854;"/>
    <path clip-path="url(#p2326ffbbff)" d="M 629.465675 151.438413 
L 633.729297 152.788051 
L 630.091413 155.389166 
L 629.465675 151.438413 
z
" style="stroke:#000000;stroke-linecap:round;stroke-width:1.22854;"/>
   </g>
   <g id="patch_7">
    <path clip-path="url(#p2326ffbbff)" d="M 148.148583 243.313935 
Q 125.004901 389.437372 102.076089 534.20417 
" style="fill:none;stroke:#000000;stroke-linecap:round;stroke-width:1.22854;"/>
    <path clip-path="url(#p2326ffbbff)" d="M 104.677204 530.566285 
L 102.076089 534.20417 
L 100.726451 529.940547 
L 104.677204 530.566285 
z
" style="stroke:#000000;stroke-linecap:round;stroke-width:1.22854;"/>
   </g>
   <g id="patch_8">
    <path clip-path="url(#p2326ffbbff)" d="M 160.361593 239.346818 
Q 399.706966 478.692242 638.824822 717.81015 
" style="fill:none;stroke:#000000;stroke-linecap:round;stroke-width:0.287788;"/>
    <path clip-path="url(#p2326ffbbff)" d="M 637.410609 713.567509 
L 638.824822 717.81015 
L 634.582182 716.395936 
L 637.410609 713.567509 
z
" style="stroke:#000000;stroke-linecap:round;stroke-width:0.287788;"/>
   </g>
   <g id="patch_9">
    <path clip-path="url(#p2326ffbbff)" d="M 235.767016 715.437525 
Q 389.436189 413.844696 542.959287 112.538554 
" style="fill:none;stroke:#000000;stroke-linecap:round;stroke-width:0.287788;"/>
    <path clip-path="url(#p2326ffbbff)" d="M 539.361312 115.194599 
L 542.959287 112.538554 
L 542.925339 117.010561 
L 539.361312 115.194599 
z
" style="stroke:#000000;stroke-linecap:round;stroke-width:0.287788;"/>
   </g>
   <g id="patch_10">
    <path clip-path="url(#p2326ffbbff)" d="M 222.925844 715.438599 
Q 155.760239 583.618731 88.740709 452.085551 
" style="fill:none;stroke:#000000;stroke-linecap:round;stroke-width:0.287788;"/>
    <path clip-path="url(#p2326ffbbff)" d="M 88.774659 456.557558 
L 88.740709 452.085551 
L 92.338685 454.741595 
L 88.774659 456.557558 
z
" style="stroke:#000000;stroke-linecap:round;stroke-width:0.287788;"/>
   </g>
   <g id="patch_11">
    <path clip-path="url(#p2326ffbbff)" d="M 242.797082 723.668699 
Q 504.049559 638.782584 765.089374 553.965567 
" style="fill:none;stroke:#000000;stroke-linecap:round;stroke-width:0.2;"/>
    <path clip-path="url(#p2326ffbbff)" d="M 760.667114 553.299523 
L 765.089374 553.965567 
L 761.903182 557.103749 
L 760.667114 553.299523 
z
" style="stroke:#000000;stroke-linecap:round;stroke-width:0.2;"/>
   </g>
   <g id="patch_12">
    <path clip-path="url(#p2326ffbbff)" d="M 340.315267 770.437615 
Q 562.549943 608.974693 784.603718 447.643204 
" style="fill:none;stroke:#000000;stroke-linecap:round;stroke-width:0.2;"/>
    <path clip-path="url(#p2326ffbbff)" d="M 780.19208 448.376311 
L 784.603718 447.643204 
L 782.54322 451.612379 
L 780.19208 448.376311 
z
" style="stroke:#000000;stroke-linecap:round;stroke-width:0.2;"/>
   </g>
   <g id="patch_13">
    <path clip-path="url(#p2326ffbbff)" d="M 331.085704 764.781713 
Q 384.036519 430.463521 436.222586 100.973754 
" style="fill:none;stroke:#000000;stroke-linecap:round;stroke-width:4.372507;"/>
    <path clip-path="url(#p2326ffbbff)" d="M 433.621471 104.611639 
L 436.222586 100.973754 
L 437.572225 105.237377 
L 433.621471 104.611639 
z
" style="stroke:#000000;stroke-linecap:round;stroke-width:4.372507;"/>
   </g>
   <g id="patch_14">
    <path clip-path="url(#p2326ffbbff)" d="M 715.437463 642.633067 
Q 413.844674 488.963843 116.607671 337.514003 
" style="fill:none;stroke:#000000;stroke-linecap:round;stroke-width:4.372507;"/>
    <path clip-path="url(#p2326ffbbff)" d="M 119.263716 341.111978 
L 116.607671 337.514003 
L 121.079678 337.547952 
L 119.263716 341.111978 
z
" style="stroke:#000000;stroke-linecap:round;stroke-width:4.372507;"/>
   </g>
   <g id="patch_15">
    <path clip-path="url(#p2326ffbbff)" d="M 713.895969 649.053927 
Q 439.198846 649.053927 169.390335 649.053927 
" style="fill:none;stroke:#000000;stroke-linecap:round;stroke-width:4.372507;"/>
    <path clip-path="url(#p2326ffbbff)" d="M 173.390335 651.053927 
L 169.390335 649.053927 
L 173.390335 647.053927 
L 173.390335 651.053927 
z
" style="stroke:#000000;stroke-linecap:round;stroke-width:4.372507;"/>
   </g>
   <g id="PathCollection_1">
    <defs>
     <path d="M 0 14.142136 
C 3.750538 14.142136 7.347969 12.652031 10 10 
C 12.652031 7.347969 14.142136 3.750538 14.142136 -0 
C 14.142136 -3.750538 12.652031 -7.347969 10 -10 
C 7.347969 -12.652031 3.750538 -14.142136 0 -14.142136 
C -3.750538 -14.142136 -7.347969 -12.652031 -10 -10 
C -12.652031 -7.347969 -14.142136 -3.750538 -14.142136 0 
C -14.142136 3.750538 -12.652031 7.347969 -10 10 
C -7.347969 12.652031 -3.750538 14.142136 0 14.142136 
z
" id="C0_0_f2465618b5"/>
    </defs>
    <g clip-path="url(#p2326ffbbff)">
     <use style="fill:#440154;stroke:#440154;" x="796.224793" xlink:href="#C0_0_f2465618b5" y="439.2"/>
    </g>
    <g clip-path="url(#p2326ffbbff)">
     <use style="fill:#440154;stroke:#440154;" x="778.750765" xlink:href="#C0_0_f2465618b5" y="328.873268"/>
    </g>
    <g clip-path="url(#p2326ffbbff)">
     <use style="fill:#440154;stroke:#440154;" x="728.039128" xlink:href="#C0_0_f2465618b5" y="229.346095"/>
    </g>
    <g clip-path="url(#p2326ffbbff)">
     <use style="fill:#440154;stroke:#440154;" x="649.053905" xlink:href="#C0_0_f2465618b5" y="150.360872"/>
    </g>
    <g clip-path="url(#p2326ffbbff)">
     <use style="fill:#440154;stroke:#440154;" x="549.526721" xlink:href="#C0_0_f2465618b5" y="99.649235"/>
    </g>
    <g clip-path="url(#p2326ffbbff)">
     <use style="fill:#2a788e;stroke:#2a788e;" x="439.199984" xlink:href="#C0_0_f2465618b5" y="82.175207"/>
    </g>
    <g clip-path="url(#p2326ffbbff)">
     <use style="fill:#2a788e;stroke:#2a788e;" x="328.873258" xlink:href="#C0_0_f2465618b5" y="99.649257"/>
    </g>
    <g clip-path="url(#p2326ffbbff)">
     <use style="fill:#2a788e;stroke:#2a788e;" x="229.346095" xlink:href="#C0_0_f2465618b5" y="150.360872"/>
    </g>
    <g clip-path="url(#p2326ffbbff)">
     <use style="fill:#2a788e;stroke:#2a788e;" x="150.360872" xlink:href="#C0_0_f2465618b5" y="229.346095"/>
    </g>
    <g clip-path="url(#p2326ffbbff)">
     <use style="fill:#2a788e;stroke:#2a788e;" x="99.649257" xlink:href="#C0_0_f2465618b5" y="328.873258"/>
    </g>
    <g clip-path="url(#p2326ffbbff)">
     <use style="fill:#2a788e;stroke:#2a788e;" x="82.175207" xlink:href="#C0_0_f2465618b5" y="439.200031"/>
    </g>
    <g clip-path="url(#p2326ffbbff)">
     <use style="fill:#22a884;stroke:#22a884;" x="99.649235" xlink:href="#C0_0_f2465618b5" y="549.526721"/>
    </g>
    <g clip-path="url(#p2326ffbbff)">
     <use style="fill:#22a884;stroke:#22a884;" x="150.360893" xlink:href="#C0_0_f2465618b5" y="649.053927"/>
    </g>
    <g clip-path="url(#p2326ffbbff)">
     <use style="fill:#22a884;stroke:#22a884;" x="229.346159" xlink:href="#C0_0_f2465618b5" y="728.039171"/>
    </g>
    <g clip-path="url(#p2326ffbbff)">
     <use style="fill:#7ad151;stroke:#7ad151;" x="328.873226" xlink:href="#C0_0_f2465618b5" y="778.750743"/>
    </g>
    <g clip-path="url(#p2326ffbbff)">
     <use style="fill:#7ad151;stroke:#7ad151;" x="439.200004" xlink:href="#C0_0_f2465618b5" y="796.224793"/>
    </g>
    <g clip-path="url(#p2326ffbbff)">
     <use style="fill:#7ad151;stroke:#7ad151;" x="549.526774" xlink:href="#C0_0_f2465618b5" y="778.750743"/>
    </g>
    <g clip-path="url(#p2326ffbbff)">
     <use style="fill:#7ad151;stroke:#7ad151;" x="649.053841" xlink:href="#C0_0_f2465618b5" y="728.039171"/>
    </g>
    <g clip-path="url(#p2326ffbbff)">
     <use style="fill:#7ad151;stroke:#7ad151;" x="728.039107" xlink:href="#C0_0_f2465618b5" y="649.053927"/>
    </g>
    <g clip-path="url(#p2326ffbbff)">
     <use style="fill:#7ad151;stroke:#7ad151;" x="778.750765" xlink:href="#C0_0_f2465618b5" y="549.52671"/>
    </g>
   </g>
   <g id="text_1">
    <g clip-path="url(#p2326ffbbff)">
     <!-- glu__L_0 -->
     <g transform="translate(779.265418 441.29625)scale(0.08 -0.08)">
      <defs>
       <path d="M 2906 1791 
Q 2906 2416 2648 2759 
Q 2391 3103 1925 3103 
Q 1463 3103 1205 2759 
Q 947 2416 947 1791 
Q 947 1169 1205 825 
Q 1463 481 1925 481 
Q 2391 481 2648 825 
Q 2906 1169 2906 1791 
z
M 3481 434 
Q 3481 -459 3084 -895 
Q 2688 -1331 1869 -1331 
Q 1566 -1331 1297 -1286 
Q 1028 -1241 775 -1147 
L 775 -588 
Q 1028 -725 1275 -790 
Q 1522 -856 1778 -856 
Q 2344 -856 2625 -561 
Q 2906 -266 2906 331 
L 2906 616 
Q 2728 306 2450 153 
Q 2172 0 1784 0 
Q 1141 0 747 490 
Q 353 981 353 1791 
Q 353 2603 747 3093 
Q 1141 3584 1784 3584 
Q 2172 3584 2450 3431 
Q 2728 3278 2906 2969 
L 2906 3500 
L 3481 3500 
L 3481 434 
z
" id="DejaVuSans-67" transform="scale(0.015625)"/>
       <path d="M 603 4863 
L 1178 4863 
L 1178 0 
L 603 0 
L 603 4863 
z
" id="DejaVuSans-6c" transform="scale(0.015625)"/>
       <path d="M 544 1381 
L 544 3500 
L 1119 3500 
L 1119 1403 
Q 1119 906 1312 657 
Q 1506 409 1894 409 
Q 2359 409 2629 706 
Q 2900 1003 2900 1516 
L 2900 3500 
L 3475 3500 
L 3475 0 
L 2900 0 
L 2900 538 
Q 2691 219 2414 64 
Q 2138 -91 1772 -91 
Q 1169 -91 856 284 
Q 544 659 544 1381 
z
M 1991 3584 
L 1991 3584 
z
" id="DejaVuSans-75" transform="scale(0.015625)"/>
       <path d="M 3263 -1063 
L 3263 -1509 
L -63 -1509 
L -63 -1063 
L 3263 -1063 
z
" id="DejaVuSans-5f" transform="scale(0.015625)"/>
       <path d="M 628 4666 
L 1259 4666 
L 1259 531 
L 3531 531 
L 3531 0 
L 628 0 
L 628 4666 
z
" id="DejaVuSans-4c" transform="scale(0.015625)"/>
       <path d="M 2034 4250 
Q 1547 4250 1301 3770 
Q 1056 3291 1056 2328 
Q 1056 1369 1301 889 
Q 1547 409 2034 409 
Q 2525 409 2770 889 
Q 3016 1369 3016 2328 
Q 3016 3291 2770 3770 
Q 2525 4250 2034 4250 
z
M 2034 4750 
Q 2819 4750 3233 4129 
Q 3647 3509 3647 2328 
Q 3647 1150 3233 529 
Q 2819 -91 2034 -91 
Q 1250 -91 836 529 
Q 422 1150 422 2328 
Q 422 3509 836 4129 
Q 1250 4750 2034 4750 
z
" id="DejaVuSans-30" transform="scale(0.015625)"/>
      </defs>
      <use xlink:href="#DejaVuSans-67"/>
      <use x="63.476562" xlink:href="#DejaVuSans-6c"/>
      <use x="91.259766" xlink:href="#DejaVuSans-75"/>
      <use x="154.638672" xlink:href="#DejaVuSans-5f"/>
      <use x="204.638672" xlink:href="#DejaVuSans-5f"/>
      <use x="254.638672" xlink:href="#DejaVuSans-4c"/>
      <use x="310.351562" xlink:href="#DejaVuSans-5f"/>
      <use x="360.351562" xlink:href="#DejaVuSans-30"/>
     </g>
    </g>
   </g>
   <g id="text_2">
    <g clip-path="url(#p2326ffbbff)">
     <!-- fum_0 -->
     <g transform="translate(766.36639 330.969518)scale(0.08 -0.08)">
      <defs>
       <path d="M 2375 4863 
L 2375 4384 
L 1825 4384 
Q 1516 4384 1395 4259 
Q 1275 4134 1275 3809 
L 1275 3500 
L 2222 3500 
L 2222 3053 
L 1275 3053 
L 1275 0 
L 697 0 
L 697 3053 
L 147 3053 
L 147 3500 
L 697 3500 
L 697 3744 
Q 697 4328 969 4595 
Q 1241 4863 1831 4863 
L 2375 4863 
z
" id="DejaVuSans-66" transform="scale(0.015625)"/>
       <path d="M 3328 2828 
Q 3544 3216 3844 3400 
Q 4144 3584 4550 3584 
Q 5097 3584 5394 3201 
Q 5691 2819 5691 2113 
L 5691 0 
L 5113 0 
L 5113 2094 
Q 5113 2597 4934 2840 
Q 4756 3084 4391 3084 
Q 3944 3084 3684 2787 
Q 3425 2491 3425 1978 
L 3425 0 
L 2847 0 
L 2847 2094 
Q 2847 2600 2669 2842 
Q 2491 3084 2119 3084 
Q 1678 3084 1418 2786 
Q 1159 2488 1159 1978 
L 1159 0 
L 581 0 
L 581 3500 
L 1159 3500 
L 1159 2956 
Q 1356 3278 1631 3431 
Q 1906 3584 2284 3584 
Q 2666 3584 2933 3390 
Q 3200 3197 3328 2828 
z
" id="DejaVuSans-6d" transform="scale(0.015625)"/>
      </defs>
      <use xlink:href="#DejaVuSans-66"/>
      <use x="35.205078" xlink:href="#DejaVuSans-75"/>
      <use x="98.583984" xlink:href="#DejaVuSans-6d"/>
      <use x="195.996094" xlink:href="#DejaVuSans-5f"/>
      <use x="245.996094" xlink:href="#DejaVuSans-30"/>
     </g>
    </g>
   </g>
   <g id="text_3">
    <g clip-path="url(#p2326ffbbff)">
     <!-- ala__L_0 -->
     <g transform="translate(711.251628 231.442345)scale(0.08 -0.08)">
      <defs>
       <path d="M 2194 1759 
Q 1497 1759 1228 1600 
Q 959 1441 959 1056 
Q 959 750 1161 570 
Q 1363 391 1709 391 
Q 2188 391 2477 730 
Q 2766 1069 2766 1631 
L 2766 1759 
L 2194 1759 
z
M 3341 1997 
L 3341 0 
L 2766 0 
L 2766 531 
Q 2569 213 2275 61 
Q 1981 -91 1556 -91 
Q 1019 -91 701 211 
Q 384 513 384 1019 
Q 384 1609 779 1909 
Q 1175 2209 1959 2209 
L 2766 2209 
L 2766 2266 
Q 2766 2663 2505 2880 
Q 2244 3097 1772 3097 
Q 1472 3097 1187 3025 
Q 903 2953 641 2809 
L 641 3341 
Q 956 3463 1253 3523 
Q 1550 3584 1831 3584 
Q 2591 3584 2966 3190 
Q 3341 2797 3341 1997 
z
" id="DejaVuSans-61" transform="scale(0.015625)"/>
      </defs>
      <use xlink:href="#DejaVuSans-61"/>
      <use x="61.279297" xlink:href="#DejaVuSans-6c"/>
      <use x="89.0625" xlink:href="#DejaVuSans-61"/>
      <use x="150.341797" xlink:href="#DejaVuSans-5f"/>
      <use x="200.341797" xlink:href="#DejaVuSans-5f"/>
      <use x="250.341797" xlink:href="#DejaVuSans-4c"/>
      <use x="306.054688" xlink:href="#DejaVuSans-5f"/>
      <use x="356.054688" xlink:href="#DejaVuSans-30"/>
     </g>
    </g>
   </g>
   <g id="text_4">
    <g clip-path="url(#p2326ffbbff)">
     <!-- ser__L_0 -->
     <g transform="translate(632.09078 152.386497)scale(0.08 -0.08)">
      <defs>
       <path d="M 2834 3397 
L 2834 2853 
Q 2591 2978 2328 3040 
Q 2066 3103 1784 3103 
Q 1356 3103 1142 2972 
Q 928 2841 928 2578 
Q 928 2378 1081 2264 
Q 1234 2150 1697 2047 
L 1894 2003 
Q 2506 1872 2764 1633 
Q 3022 1394 3022 966 
Q 3022 478 2636 193 
Q 2250 -91 1575 -91 
Q 1294 -91 989 -36 
Q 684 19 347 128 
L 347 722 
Q 666 556 975 473 
Q 1284 391 1588 391 
Q 1994 391 2212 530 
Q 2431 669 2431 922 
Q 2431 1156 2273 1281 
Q 2116 1406 1581 1522 
L 1381 1569 
Q 847 1681 609 1914 
Q 372 2147 372 2553 
Q 372 3047 722 3315 
Q 1072 3584 1716 3584 
Q 2034 3584 2315 3537 
Q 2597 3491 2834 3397 
z
" id="DejaVuSans-73" transform="scale(0.015625)"/>
       <path d="M 3597 1894 
L 3597 1613 
L 953 1613 
Q 991 1019 1311 708 
Q 1631 397 2203 397 
Q 2534 397 2845 478 
Q 3156 559 3463 722 
L 3463 178 
Q 3153 47 2828 -22 
Q 2503 -91 2169 -91 
Q 1331 -91 842 396 
Q 353 884 353 1716 
Q 353 2575 817 3079 
Q 1281 3584 2069 3584 
Q 2775 3584 3186 3129 
Q 3597 2675 3597 1894 
z
M 3022 2063 
Q 3016 2534 2758 2815 
Q 2500 3097 2075 3097 
Q 1594 3097 1305 2825 
Q 1016 2553 972 2059 
L 3022 2063 
z
" id="DejaVuSans-65" transform="scale(0.015625)"/>
       <path d="M 2631 2963 
Q 2534 3019 2420 3045 
Q 2306 3072 2169 3072 
Q 1681 3072 1420 2755 
Q 1159 2438 1159 1844 
L 1159 0 
L 581 0 
L 581 3500 
L 1159 3500 
L 1159 2956 
Q 1341 3275 1631 3429 
Q 1922 3584 2338 3584 
Q 2397 3584 2469 3576 
Q 2541 3569 2628 3553 
L 2631 2963 
z
" id="DejaVuSans-72" transform="scale(0.015625)"/>
      </defs>
      <use xlink:href="#DejaVuSans-73"/>
      <use x="52.099609" xlink:href="#DejaVuSans-65"/>
      <use x="113.623047" xlink:href="#DejaVuSans-72"/>
      <use x="154.736328" xlink:href="#DejaVuSans-5f"/>
      <use x="204.736328" xlink:href="#DejaVuSans-5f"/>
      <use x="254.736328" xlink:href="#DejaVuSans-4c"/>
      <use x="310.449219" xlink:href="#DejaVuSans-5f"/>
      <use x="360.449219" xlink:href="#DejaVuSans-30"/>
     </g>
    </g>
   </g>
   <g id="text_5">
    <g clip-path="url(#p2326ffbbff)">
     <!-- h2o_0 -->
     <g transform="translate(537.454221 101.745485)scale(0.08 -0.08)">
      <defs>
       <path d="M 3513 2113 
L 3513 0 
L 2938 0 
L 2938 2094 
Q 2938 2591 2744 2837 
Q 2550 3084 2163 3084 
Q 1697 3084 1428 2787 
Q 1159 2491 1159 1978 
L 1159 0 
L 581 0 
L 581 4863 
L 1159 4863 
L 1159 2956 
Q 1366 3272 1645 3428 
Q 1925 3584 2291 3584 
Q 2894 3584 3203 3211 
Q 3513 2838 3513 2113 
z
" id="DejaVuSans-68" transform="scale(0.015625)"/>
       <path d="M 1228 531 
L 3431 531 
L 3431 0 
L 469 0 
L 469 531 
Q 828 903 1448 1529 
Q 2069 2156 2228 2338 
Q 2531 2678 2651 2914 
Q 2772 3150 2772 3378 
Q 2772 3750 2511 3984 
Q 2250 4219 1831 4219 
Q 1534 4219 1204 4116 
Q 875 4013 500 3803 
L 500 4441 
Q 881 4594 1212 4672 
Q 1544 4750 1819 4750 
Q 2544 4750 2975 4387 
Q 3406 4025 3406 3419 
Q 3406 3131 3298 2873 
Q 3191 2616 2906 2266 
Q 2828 2175 2409 1742 
Q 1991 1309 1228 531 
z
" id="DejaVuSans-32" transform="scale(0.015625)"/>
       <path d="M 1959 3097 
Q 1497 3097 1228 2736 
Q 959 2375 959 1747 
Q 959 1119 1226 758 
Q 1494 397 1959 397 
Q 2419 397 2687 759 
Q 2956 1122 2956 1747 
Q 2956 2369 2687 2733 
Q 2419 3097 1959 3097 
z
M 1959 3584 
Q 2709 3584 3137 3096 
Q 3566 2609 3566 1747 
Q 3566 888 3137 398 
Q 2709 -91 1959 -91 
Q 1206 -91 779 398 
Q 353 888 353 1747 
Q 353 2609 779 3096 
Q 1206 3584 1959 3584 
z
" id="DejaVuSans-6f" transform="scale(0.015625)"/>
      </defs>
      <use xlink:href="#DejaVuSans-68"/>
      <use x="63.378906" xlink:href="#DejaVuSans-32"/>
      <use x="127.001953" xlink:href="#DejaVuSans-6f"/>
      <use x="188.183594" xlink:href="#DejaVuSans-5f"/>
      <use x="238.183594" xlink:href="#DejaVuSans-30"/>
     </g>
    </g>
   </g>
   <g id="text_6">
    <g clip-path="url(#p2326ffbbff)">
     <!-- glu__L_2 -->
     <g transform="translate(422.240609 84.271457)scale(0.08 -0.08)">
      <use xlink:href="#DejaVuSans-67"/>
      <use x="63.476562" xlink:href="#DejaVuSans-6c"/>
      <use x="91.259766" xlink:href="#DejaVuSans-75"/>
      <use x="154.638672" xlink:href="#DejaVuSans-5f"/>
      <use x="204.638672" xlink:href="#DejaVuSans-5f"/>
      <use x="254.638672" xlink:href="#DejaVuSans-4c"/>
      <use x="310.351562" xlink:href="#DejaVuSans-5f"/>
      <use x="360.351562" xlink:href="#DejaVuSans-32"/>
     </g>
    </g>
   </g>
   <g id="text_7">
    <g clip-path="url(#p2326ffbbff)">
     <!-- fum_2 -->
     <g transform="translate(316.488883 101.745507)scale(0.08 -0.08)">
      <use xlink:href="#DejaVuSans-66"/>
      <use x="35.205078" xlink:href="#DejaVuSans-75"/>
      <use x="98.583984" xlink:href="#DejaVuSans-6d"/>
      <use x="195.996094" xlink:href="#DejaVuSans-5f"/>
      <use x="245.996094" xlink:href="#DejaVuSans-32"/>
     </g>
    </g>
   </g>
   <g id="text_8">
    <g clip-path="url(#p2326ffbbff)">
     <!-- ala__L_2 -->
     <g transform="translate(212.558595 152.457122)scale(0.08 -0.08)">
      <use xlink:href="#DejaVuSans-61"/>
      <use x="61.279297" xlink:href="#DejaVuSans-6c"/>
      <use x="89.0625" xlink:href="#DejaVuSans-61"/>
      <use x="150.341797" xlink:href="#DejaVuSans-5f"/>
      <use x="200.341797" xlink:href="#DejaVuSans-5f"/>
      <use x="250.341797" xlink:href="#DejaVuSans-4c"/>
      <use x="306.054688" xlink:href="#DejaVuSans-5f"/>
      <use x="356.054688" xlink:href="#DejaVuSans-32"/>
     </g>
    </g>
   </g>
   <g id="text_9">
    <g clip-path="url(#p2326ffbbff)">
     <!-- ser__L_2 -->
     <g transform="translate(133.397747 231.37172)scale(0.08 -0.08)">
      <use xlink:href="#DejaVuSans-73"/>
      <use x="52.099609" xlink:href="#DejaVuSans-65"/>
      <use x="113.623047" xlink:href="#DejaVuSans-72"/>
      <use x="154.736328" xlink:href="#DejaVuSans-5f"/>
      <use x="204.736328" xlink:href="#DejaVuSans-5f"/>
      <use x="254.736328" xlink:href="#DejaVuSans-4c"/>
      <use x="310.449219" xlink:href="#DejaVuSans-5f"/>
      <use x="360.449219" xlink:href="#DejaVuSans-32"/>
     </g>
    </g>
   </g>
   <g id="text_10">
    <g clip-path="url(#p2326ffbbff)">
     <!-- orn_2 -->
     <g transform="translate(88.547382 330.898883)scale(0.08 -0.08)">
      <defs>
       <path d="M 3513 2113 
L 3513 0 
L 2938 0 
L 2938 2094 
Q 2938 2591 2744 2837 
Q 2550 3084 2163 3084 
Q 1697 3084 1428 2787 
Q 1159 2491 1159 1978 
L 1159 0 
L 581 0 
L 581 3500 
L 1159 3500 
L 1159 2956 
Q 1366 3272 1645 3428 
Q 1925 3584 2291 3584 
Q 2894 3584 3203 3211 
Q 3513 2838 3513 2113 
z
" id="DejaVuSans-6e" transform="scale(0.015625)"/>
      </defs>
      <use xlink:href="#DejaVuSans-6f"/>
      <use x="61.181641" xlink:href="#DejaVuSans-72"/>
      <use x="100.544922" xlink:href="#DejaVuSans-6e"/>
      <use x="163.923828" xlink:href="#DejaVuSans-5f"/>
      <use x="213.923828" xlink:href="#DejaVuSans-32"/>
     </g>
    </g>
   </g>
   <g id="text_11">
    <g clip-path="url(#p2326ffbbff)">
     <!-- h2o_2 -->
     <g transform="translate(70.102707 441.296281)scale(0.08 -0.08)">
      <use xlink:href="#DejaVuSans-68"/>
      <use x="63.378906" xlink:href="#DejaVuSans-32"/>
      <use x="127.001953" xlink:href="#DejaVuSans-6f"/>
      <use x="188.183594" xlink:href="#DejaVuSans-5f"/>
      <use x="238.183594" xlink:href="#DejaVuSans-32"/>
     </g>
    </g>
   </g>
   <g id="text_12">
    <g clip-path="url(#p2326ffbbff)">
     <!-- ser__L_3 -->
     <g transform="translate(82.68611 551.552346)scale(0.08 -0.08)">
      <defs>
       <path d="M 2597 2516 
Q 3050 2419 3304 2112 
Q 3559 1806 3559 1356 
Q 3559 666 3084 287 
Q 2609 -91 1734 -91 
Q 1441 -91 1130 -33 
Q 819 25 488 141 
L 488 750 
Q 750 597 1062 519 
Q 1375 441 1716 441 
Q 2309 441 2620 675 
Q 2931 909 2931 1356 
Q 2931 1769 2642 2001 
Q 2353 2234 1838 2234 
L 1294 2234 
L 1294 2753 
L 1863 2753 
Q 2328 2753 2575 2939 
Q 2822 3125 2822 3475 
Q 2822 3834 2567 4026 
Q 2313 4219 1838 4219 
Q 1578 4219 1281 4162 
Q 984 4106 628 3988 
L 628 4550 
Q 988 4650 1302 4700 
Q 1616 4750 1894 4750 
Q 2613 4750 3031 4423 
Q 3450 4097 3450 3541 
Q 3450 3153 3228 2886 
Q 3006 2619 2597 2516 
z
" id="DejaVuSans-33" transform="scale(0.015625)"/>
      </defs>
      <use xlink:href="#DejaVuSans-73"/>
      <use x="52.099609" xlink:href="#DejaVuSans-65"/>
      <use x="113.623047" xlink:href="#DejaVuSans-72"/>
      <use x="154.736328" xlink:href="#DejaVuSans-5f"/>
      <use x="204.736328" xlink:href="#DejaVuSans-5f"/>
      <use x="254.736328" xlink:href="#DejaVuSans-4c"/>
      <use x="310.449219" xlink:href="#DejaVuSans-5f"/>
      <use x="360.449219" xlink:href="#DejaVuSans-33"/>
     </g>
    </g>
   </g>
   <g id="text_13">
    <g clip-path="url(#p2326ffbbff)">
     <!-- orn_3 -->
     <g transform="translate(139.259018 651.079552)scale(0.08 -0.08)">
      <use xlink:href="#DejaVuSans-6f"/>
      <use x="61.181641" xlink:href="#DejaVuSans-72"/>
      <use x="100.544922" xlink:href="#DejaVuSans-6e"/>
      <use x="163.923828" xlink:href="#DejaVuSans-5f"/>
      <use x="213.923828" xlink:href="#DejaVuSans-33"/>
     </g>
    </g>
   </g>
   <g id="text_14">
    <g clip-path="url(#p2326ffbbff)">
     <!-- h2o_3 -->
     <g transform="translate(217.273659 730.135421)scale(0.08 -0.08)">
      <use xlink:href="#DejaVuSans-68"/>
      <use x="63.378906" xlink:href="#DejaVuSans-32"/>
      <use x="127.001953" xlink:href="#DejaVuSans-6f"/>
      <use x="188.183594" xlink:href="#DejaVuSans-5f"/>
      <use x="238.183594" xlink:href="#DejaVuSans-33"/>
     </g>
    </g>
   </g>
   <g id="text_15">
    <g clip-path="url(#p2326ffbbff)">
     <!-- glu__L_4 -->
     <g transform="translate(311.913851 780.846993)scale(0.08 -0.08)">
      <defs>
       <path d="M 2419 4116 
L 825 1625 
L 2419 1625 
L 2419 4116 
z
M 2253 4666 
L 3047 4666 
L 3047 1625 
L 3713 1625 
L 3713 1100 
L 3047 1100 
L 3047 0 
L 2419 0 
L 2419 1100 
L 313 1100 
L 313 1709 
L 2253 4666 
z
" id="DejaVuSans-34" transform="scale(0.015625)"/>
      </defs>
      <use xlink:href="#DejaVuSans-67"/>
      <use x="63.476562" xlink:href="#DejaVuSans-6c"/>
      <use x="91.259766" xlink:href="#DejaVuSans-75"/>
      <use x="154.638672" xlink:href="#DejaVuSans-5f"/>
      <use x="204.638672" xlink:href="#DejaVuSans-5f"/>
      <use x="254.638672" xlink:href="#DejaVuSans-4c"/>
      <use x="310.351562" xlink:href="#DejaVuSans-5f"/>
      <use x="360.351562" xlink:href="#DejaVuSans-34"/>
     </g>
    </g>
   </g>
   <g id="text_16">
    <g clip-path="url(#p2326ffbbff)">
     <!-- fum_4 -->
     <g transform="translate(426.815629 798.321043)scale(0.08 -0.08)">
      <use xlink:href="#DejaVuSans-66"/>
      <use x="35.205078" xlink:href="#DejaVuSans-75"/>
      <use x="98.583984" xlink:href="#DejaVuSans-6d"/>
      <use x="195.996094" xlink:href="#DejaVuSans-5f"/>
      <use x="245.996094" xlink:href="#DejaVuSans-34"/>
     </g>
    </g>
   </g>
   <g id="text_17">
    <g clip-path="url(#p2326ffbbff)">
     <!-- ala__L_4 -->
     <g transform="translate(532.739274 780.846993)scale(0.08 -0.08)">
      <use xlink:href="#DejaVuSans-61"/>
      <use x="61.279297" xlink:href="#DejaVuSans-6c"/>
      <use x="89.0625" xlink:href="#DejaVuSans-61"/>
      <use x="150.341797" xlink:href="#DejaVuSans-5f"/>
      <use x="200.341797" xlink:href="#DejaVuSans-5f"/>
      <use x="250.341797" xlink:href="#DejaVuSans-4c"/>
      <use x="306.054688" xlink:href="#DejaVuSans-5f"/>
      <use x="356.054688" xlink:href="#DejaVuSans-34"/>
     </g>
    </g>
   </g>
   <g id="text_18">
    <g clip-path="url(#p2326ffbbff)">
     <!-- ser__L_4 -->
     <g transform="translate(632.090716 730.024171)scale(0.08 -0.08)">
      <use xlink:href="#DejaVuSans-73"/>
      <use x="52.099609" xlink:href="#DejaVuSans-65"/>
      <use x="113.623047" xlink:href="#DejaVuSans-72"/>
      <use x="154.736328" xlink:href="#DejaVuSans-5f"/>
      <use x="204.736328" xlink:href="#DejaVuSans-5f"/>
      <use x="254.736328" xlink:href="#DejaVuSans-4c"/>
      <use x="310.449219" xlink:href="#DejaVuSans-5f"/>
      <use x="360.449219" xlink:href="#DejaVuSans-34"/>
     </g>
    </g>
   </g>
   <g id="text_19">
    <g clip-path="url(#p2326ffbbff)">
     <!-- orn_4 -->
     <g transform="translate(716.937232 651.038927)scale(0.08 -0.08)">
      <use xlink:href="#DejaVuSans-6f"/>
      <use x="61.181641" xlink:href="#DejaVuSans-72"/>
      <use x="100.544922" xlink:href="#DejaVuSans-6e"/>
      <use x="163.923828" xlink:href="#DejaVuSans-5f"/>
      <use x="213.923828" xlink:href="#DejaVuSans-34"/>
     </g>
    </g>
   </g>
   <g id="text_20">
    <g clip-path="url(#p2326ffbbff)">
     <!-- h2o_4 -->
     <g transform="translate(766.678265 551.62296)scale(0.08 -0.08)">
      <use xlink:href="#DejaVuSans-68"/>
      <use x="63.378906" xlink:href="#DejaVuSans-32"/>
      <use x="127.001953" xlink:href="#DejaVuSans-6f"/>
      <use x="188.183594" xlink:href="#DejaVuSans-5f"/>
      <use x="238.183594" xlink:href="#DejaVuSans-34"/>
     </g>
    </g>
   </g>
   <g id="legend_1">
    <g id="patch_16">
     <path d="M 754.140625 88.590625 
L 864.2 88.590625 
Q 866.2 88.590625 866.2 86.590625 
L 866.2 14.2 
Q 866.2 12.2 864.2 12.2 
L 754.140625 12.2 
Q 752.140625 12.2 752.140625 14.2 
L 752.140625 86.590625 
Q 752.140625 88.590625 754.140625 88.590625 
z
" style="fill:#ffffff;opacity:0.8;stroke:#cccccc;stroke-linejoin:miter;"/>
    </g>
    <g id="patch_17">
     <path d="M 756.140625 23.798437 
L 776.140625 23.798437 
L 776.140625 16.798437 
L 756.140625 16.798437 
z
" style="fill:#440154;stroke:#440154;stroke-linejoin:miter;"/>
    </g>
    <g id="text_21">
     <!-- CarveMe -->
     <g transform="translate(784.140625 23.798437)scale(0.1 -0.1)">
      <defs>
       <path d="M 4122 4306 
L 4122 3641 
Q 3803 3938 3442 4084 
Q 3081 4231 2675 4231 
Q 1875 4231 1450 3742 
Q 1025 3253 1025 2328 
Q 1025 1406 1450 917 
Q 1875 428 2675 428 
Q 3081 428 3442 575 
Q 3803 722 4122 1019 
L 4122 359 
Q 3791 134 3420 21 
Q 3050 -91 2638 -91 
Q 1578 -91 968 557 
Q 359 1206 359 2328 
Q 359 3453 968 4101 
Q 1578 4750 2638 4750 
Q 3056 4750 3426 4639 
Q 3797 4528 4122 4306 
z
" id="DejaVuSans-43" transform="scale(0.015625)"/>
       <path d="M 191 3500 
L 800 3500 
L 1894 563 
L 2988 3500 
L 3597 3500 
L 2284 0 
L 1503 0 
L 191 3500 
z
" id="DejaVuSans-76" transform="scale(0.015625)"/>
       <path d="M 628 4666 
L 1569 4666 
L 2759 1491 
L 3956 4666 
L 4897 4666 
L 4897 0 
L 4281 0 
L 4281 4097 
L 3078 897 
L 2444 897 
L 1241 4097 
L 1241 0 
L 628 0 
L 628 4666 
z
" id="DejaVuSans-4d" transform="scale(0.015625)"/>
      </defs>
      <use xlink:href="#DejaVuSans-43"/>
      <use x="69.824219" xlink:href="#DejaVuSans-61"/>
      <use x="131.103516" xlink:href="#DejaVuSans-72"/>
      <use x="172.216797" xlink:href="#DejaVuSans-76"/>
      <use x="231.396484" xlink:href="#DejaVuSans-65"/>
      <use x="292.919922" xlink:href="#DejaVuSans-4d"/>
      <use x="379.199219" xlink:href="#DejaVuSans-65"/>
     </g>
    </g>
    <g id="patch_18">
     <path d="M 756.140625 38.476562 
L 776.140625 38.476562 
L 776.140625 31.476562 
L 756.140625 31.476562 
z
" style="fill:#414487;stroke:#414487;stroke-linejoin:miter;"/>
    </g>
    <g id="text_22">
     <!-- DP -->
     <g transform="translate(784.140625 38.476562)scale(0.1 -0.1)">
      <defs>
       <path d="M 1259 4147 
L 1259 519 
L 2022 519 
Q 2988 519 3436 956 
Q 3884 1394 3884 2338 
Q 3884 3275 3436 3711 
Q 2988 4147 2022 4147 
L 1259 4147 
z
M 628 4666 
L 1925 4666 
Q 3281 4666 3915 4102 
Q 4550 3538 4550 2338 
Q 4550 1131 3912 565 
Q 3275 0 1925 0 
L 628 0 
L 628 4666 
z
" id="DejaVuSans-44" transform="scale(0.015625)"/>
       <path d="M 1259 4147 
L 1259 2394 
L 2053 2394 
Q 2494 2394 2734 2622 
Q 2975 2850 2975 3272 
Q 2975 3691 2734 3919 
Q 2494 4147 2053 4147 
L 1259 4147 
z
M 628 4666 
L 2053 4666 
Q 2838 4666 3239 4311 
Q 3641 3956 3641 3272 
Q 3641 2581 3239 2228 
Q 2838 1875 2053 1875 
L 1259 1875 
L 1259 0 
L 628 0 
L 628 4666 
z
" id="DejaVuSans-50" transform="scale(0.015625)"/>
      </defs>
      <use xlink:href="#DejaVuSans-44"/>
      <use x="77.001953" xlink:href="#DejaVuSans-50"/>
     </g>
    </g>
    <g id="patch_19">
     <path d="M 756.140625 53.154688 
L 776.140625 53.154688 
L 776.140625 46.154688 
L 756.140625 46.154688 
z
" style="fill:#2a788e;stroke:#2a788e;stroke-linejoin:miter;"/>
    </g>
    <g id="text_23">
     <!-- himodel -->
     <g transform="translate(784.140625 53.154688)scale(0.1 -0.1)">
      <defs>
       <path d="M 603 3500 
L 1178 3500 
L 1178 0 
L 603 0 
L 603 3500 
z
M 603 4863 
L 1178 4863 
L 1178 4134 
L 603 4134 
L 603 4863 
z
" id="DejaVuSans-69" transform="scale(0.015625)"/>
       <path d="M 2906 2969 
L 2906 4863 
L 3481 4863 
L 3481 0 
L 2906 0 
L 2906 525 
Q 2725 213 2448 61 
Q 2172 -91 1784 -91 
Q 1150 -91 751 415 
Q 353 922 353 1747 
Q 353 2572 751 3078 
Q 1150 3584 1784 3584 
Q 2172 3584 2448 3432 
Q 2725 3281 2906 2969 
z
M 947 1747 
Q 947 1113 1208 752 
Q 1469 391 1925 391 
Q 2381 391 2643 752 
Q 2906 1113 2906 1747 
Q 2906 2381 2643 2742 
Q 2381 3103 1925 3103 
Q 1469 3103 1208 2742 
Q 947 2381 947 1747 
z
" id="DejaVuSans-64" transform="scale(0.015625)"/>
      </defs>
      <use xlink:href="#DejaVuSans-68"/>
      <use x="63.378906" xlink:href="#DejaVuSans-69"/>
      <use x="91.162109" xlink:href="#DejaVuSans-6d"/>
      <use x="188.574219" xlink:href="#DejaVuSans-6f"/>
      <use x="249.755859" xlink:href="#DejaVuSans-64"/>
      <use x="313.232422" xlink:href="#DejaVuSans-65"/>
      <use x="374.755859" xlink:href="#DejaVuSans-6c"/>
     </g>
    </g>
    <g id="patch_20">
     <path d="M 756.140625 67.832812 
L 776.140625 67.832812 
L 776.140625 60.832812 
L 756.140625 60.832812 
z
" style="fill:#22a884;stroke:#22a884;stroke-linejoin:miter;"/>
    </g>
    <g id="text_24">
     <!-- iYS854 -->
     <g transform="translate(784.140625 67.832812)scale(0.1 -0.1)">
      <defs>
       <path d="M -13 4666 
L 666 4666 
L 1959 2747 
L 3244 4666 
L 3922 4666 
L 2272 2222 
L 2272 0 
L 1638 0 
L 1638 2222 
L -13 4666 
z
" id="DejaVuSans-59" transform="scale(0.015625)"/>
       <path d="M 3425 4513 
L 3425 3897 
Q 3066 4069 2747 4153 
Q 2428 4238 2131 4238 
Q 1616 4238 1336 4038 
Q 1056 3838 1056 3469 
Q 1056 3159 1242 3001 
Q 1428 2844 1947 2747 
L 2328 2669 
Q 3034 2534 3370 2195 
Q 3706 1856 3706 1288 
Q 3706 609 3251 259 
Q 2797 -91 1919 -91 
Q 1588 -91 1214 -16 
Q 841 59 441 206 
L 441 856 
Q 825 641 1194 531 
Q 1563 422 1919 422 
Q 2459 422 2753 634 
Q 3047 847 3047 1241 
Q 3047 1584 2836 1778 
Q 2625 1972 2144 2069 
L 1759 2144 
Q 1053 2284 737 2584 
Q 422 2884 422 3419 
Q 422 4038 858 4394 
Q 1294 4750 2059 4750 
Q 2388 4750 2728 4690 
Q 3069 4631 3425 4513 
z
" id="DejaVuSans-53" transform="scale(0.015625)"/>
       <path d="M 2034 2216 
Q 1584 2216 1326 1975 
Q 1069 1734 1069 1313 
Q 1069 891 1326 650 
Q 1584 409 2034 409 
Q 2484 409 2743 651 
Q 3003 894 3003 1313 
Q 3003 1734 2745 1975 
Q 2488 2216 2034 2216 
z
M 1403 2484 
Q 997 2584 770 2862 
Q 544 3141 544 3541 
Q 544 4100 942 4425 
Q 1341 4750 2034 4750 
Q 2731 4750 3128 4425 
Q 3525 4100 3525 3541 
Q 3525 3141 3298 2862 
Q 3072 2584 2669 2484 
Q 3125 2378 3379 2068 
Q 3634 1759 3634 1313 
Q 3634 634 3220 271 
Q 2806 -91 2034 -91 
Q 1263 -91 848 271 
Q 434 634 434 1313 
Q 434 1759 690 2068 
Q 947 2378 1403 2484 
z
M 1172 3481 
Q 1172 3119 1398 2916 
Q 1625 2713 2034 2713 
Q 2441 2713 2670 2916 
Q 2900 3119 2900 3481 
Q 2900 3844 2670 4047 
Q 2441 4250 2034 4250 
Q 1625 4250 1398 4047 
Q 1172 3844 1172 3481 
z
" id="DejaVuSans-38" transform="scale(0.015625)"/>
       <path d="M 691 4666 
L 3169 4666 
L 3169 4134 
L 1269 4134 
L 1269 2991 
Q 1406 3038 1543 3061 
Q 1681 3084 1819 3084 
Q 2600 3084 3056 2656 
Q 3513 2228 3513 1497 
Q 3513 744 3044 326 
Q 2575 -91 1722 -91 
Q 1428 -91 1123 -41 
Q 819 9 494 109 
L 494 744 
Q 775 591 1075 516 
Q 1375 441 1709 441 
Q 2250 441 2565 725 
Q 2881 1009 2881 1497 
Q 2881 1984 2565 2268 
Q 2250 2553 1709 2553 
Q 1456 2553 1204 2497 
Q 953 2441 691 2322 
L 691 4666 
z
" id="DejaVuSans-35" transform="scale(0.015625)"/>
      </defs>
      <use xlink:href="#DejaVuSans-69"/>
      <use x="27.783203" xlink:href="#DejaVuSans-59"/>
      <use x="88.867188" xlink:href="#DejaVuSans-53"/>
      <use x="152.34375" xlink:href="#DejaVuSans-38"/>
      <use x="215.966797" xlink:href="#DejaVuSans-35"/>
      <use x="279.589844" xlink:href="#DejaVuSans-34"/>
     </g>
    </g>
    <g id="patch_21">
     <path d="M 756.140625 82.510937 
L 776.140625 82.510937 
L 776.140625 75.510937 
L 756.140625 75.510937 
z
" style="fill:#7ad151;stroke:#7ad151;stroke-linejoin:miter;"/>
    </g>
    <g id="text_25">
     <!-- Staphylococcus -->
     <g transform="translate(784.140625 82.510937)scale(0.1 -0.1)">
      <defs>
       <path d="M 1172 4494 
L 1172 3500 
L 2356 3500 
L 2356 3053 
L 1172 3053 
L 1172 1153 
Q 1172 725 1289 603 
Q 1406 481 1766 481 
L 2356 481 
L 2356 0 
L 1766 0 
Q 1100 0 847 248 
Q 594 497 594 1153 
L 594 3053 
L 172 3053 
L 172 3500 
L 594 3500 
L 594 4494 
L 1172 4494 
z
" id="DejaVuSans-74" transform="scale(0.015625)"/>
       <path d="M 1159 525 
L 1159 -1331 
L 581 -1331 
L 581 3500 
L 1159 3500 
L 1159 2969 
Q 1341 3281 1617 3432 
Q 1894 3584 2278 3584 
Q 2916 3584 3314 3078 
Q 3713 2572 3713 1747 
Q 3713 922 3314 415 
Q 2916 -91 2278 -91 
Q 1894 -91 1617 61 
Q 1341 213 1159 525 
z
M 3116 1747 
Q 3116 2381 2855 2742 
Q 2594 3103 2138 3103 
Q 1681 3103 1420 2742 
Q 1159 2381 1159 1747 
Q 1159 1113 1420 752 
Q 1681 391 2138 391 
Q 2594 391 2855 752 
Q 3116 1113 3116 1747 
z
" id="DejaVuSans-70" transform="scale(0.015625)"/>
       <path d="M 2059 -325 
Q 1816 -950 1584 -1140 
Q 1353 -1331 966 -1331 
L 506 -1331 
L 506 -850 
L 844 -850 
Q 1081 -850 1212 -737 
Q 1344 -625 1503 -206 
L 1606 56 
L 191 3500 
L 800 3500 
L 1894 763 
L 2988 3500 
L 3597 3500 
L 2059 -325 
z
" id="DejaVuSans-79" transform="scale(0.015625)"/>
       <path d="M 3122 3366 
L 3122 2828 
Q 2878 2963 2633 3030 
Q 2388 3097 2138 3097 
Q 1578 3097 1268 2742 
Q 959 2388 959 1747 
Q 959 1106 1268 751 
Q 1578 397 2138 397 
Q 2388 397 2633 464 
Q 2878 531 3122 666 
L 3122 134 
Q 2881 22 2623 -34 
Q 2366 -91 2075 -91 
Q 1284 -91 818 406 
Q 353 903 353 1747 
Q 353 2603 823 3093 
Q 1294 3584 2113 3584 
Q 2378 3584 2631 3529 
Q 2884 3475 3122 3366 
z
" id="DejaVuSans-63" transform="scale(0.015625)"/>
      </defs>
      <use xlink:href="#DejaVuSans-53"/>
      <use x="63.476562" xlink:href="#DejaVuSans-74"/>
      <use x="102.685547" xlink:href="#DejaVuSans-61"/>
      <use x="163.964844" xlink:href="#DejaVuSans-70"/>
      <use x="227.441406" xlink:href="#DejaVuSans-68"/>
      <use x="290.820312" xlink:href="#DejaVuSans-79"/>
      <use x="350" xlink:href="#DejaVuSans-6c"/>
      <use x="377.783203" xlink:href="#DejaVuSans-6f"/>
      <use x="438.964844" xlink:href="#DejaVuSans-63"/>
      <use x="493.945312" xlink:href="#DejaVuSans-6f"/>
      <use x="555.126953" xlink:href="#DejaVuSans-63"/>
      <use x="610.107422" xlink:href="#DejaVuSans-63"/>
      <use x="665.087891" xlink:href="#DejaVuSans-75"/>
      <use x="728.466797" xlink:href="#DejaVuSans-73"/>
     </g>
    </g>
   </g>
  </g>
  <g id="text_26">
   <!-- Community Interaction -->
   <g transform="translate(323.89375 39.676875)scale(0.2 -0.2)">
    <defs>
     <path id="DejaVuSans-20" transform="scale(0.015625)"/>
     <path d="M 628 4666 
L 1259 4666 
L 1259 0 
L 628 0 
L 628 4666 
z
" id="DejaVuSans-49" transform="scale(0.015625)"/>
    </defs>
    <use xlink:href="#DejaVuSans-43"/>
    <use x="69.824219" xlink:href="#DejaVuSans-6f"/>
    <use x="131.005859" xlink:href="#DejaVuSans-6d"/>
    <use x="228.417969" xlink:href="#DejaVuSans-6d"/>
    <use x="325.830078" xlink:href="#DejaVuSans-75"/>
    <use x="389.208984" xlink:href="#DejaVuSans-6e"/>
    <use x="452.587891" xlink:href="#DejaVuSans-69"/>
    <use x="480.371094" xlink:href="#DejaVuSans-74"/>
    <use x="519.580078" xlink:href="#DejaVuSans-79"/>
    <use x="578.759766" xlink:href="#DejaVuSans-20"/>
    <use x="610.546875" xlink:href="#DejaVuSans-49"/>
    <use x="640.039062" xlink:href="#DejaVuSans-6e"/>
    <use x="703.417969" xlink:href="#DejaVuSans-74"/>
    <use x="742.626953" xlink:href="#DejaVuSans-65"/>
    <use x="804.150391" xlink:href="#DejaVuSans-72"/>
    <use x="845.263672" xlink:href="#DejaVuSans-61"/>
    <use x="906.542969" xlink:href="#DejaVuSans-63"/>
    <use x="961.523438" xlink:href="#DejaVuSans-74"/>
    <use x="1000.732422" xlink:href="#DejaVuSans-69"/>
    <use x="1028.515625" xlink:href="#DejaVuSans-6f"/>
    <use x="1089.697266" xlink:href="#DejaVuSans-6e"/>
   </g>
   <!--  -->
   <g transform="translate(439.2 62.0725)scale(0.2 -0.2)"/>
  </g>
 </g>
 <defs>
  <clipPath id="p2326ffbbff">
   <rect height="864" width="864" x="7.2" y="7.2"/>
  </clipPath>
 </defs>
</svg>
